<svg width="16.000000" height="16.000000" viewBox="0 0 16 16" fill="none" xmlns="http://www.w3.org/2000/svg" xmlns:xlink="http://www.w3.org/1999/xlink"><desc>Created with Pixso.</desc><defs><clipPath id="clip29236_0"><rect id="Favicon / 16" rx="3.500000" width="15.000000" height="15.000000" transform="translate(0.500000 0.500000)" fill="white" fill-opacity="0"/></clipPath></defs><rect id="Favicon / 16" rx="3.500000" width="15.000000" height="15.000000" transform="translate(0.5000000.500000)" fill="#EEEEEE" fill-opacity="1.000000"/><g clip-path="url(#clip29236_0)"><path id="Vector" d="M2.47 10.49C2.12 10.06 1.96 9.55 2 9.04L2 6.95C1.96 6.43 2.12 5.92 2.46 5.49C2.77 5.16 3.29 4.99 4.04 5C4.78 5 5.28 5.14 5.55 5.43C5.87 5.79 6.03 6.24 5.99 6.68L5.99 7.17L4.62 7.17L4.62 6.64C4.61 6.5 4.6 6.36 4.57 6.22C4.56 6.12 4.5 6.03 4.42 5.96C4.36 5.92 4.3 5.89 4.24 5.88C4.17 5.86 4.1 5.85 4.03 5.86C3.94 5.84 3.83 5.86 3.75 5.89C3.66 5.93 3.58 5.99 3.54 6.06C3.45 6.26 3.41 6.47 3.42 6.68L3.42 9.33C3.41 9.54 3.45 9.75 3.55 9.94C3.6 10.01 3.67 10.07 3.76 10.1C3.84 10.14 3.94 10.15 4.03 10.15C4.13 10.16 4.22 10.14 4.31 10.11C4.39 10.07 4.46 10.01 4.5 9.94C4.58 9.74 4.61 9.54 4.6 9.33L4.6 8.77L5.98 8.77L5.98 9.25C6.02 9.71 5.87 10.16 5.57 10.54C5.28 10.84 4.77 11 4.05 11C3.34 11 2.78 10.83 2.47 10.49Z" fill="#111111" fill-opacity="1.000000" fill-rule="nonzero"/><path id="Vector" d="M7.26 5L8.74 5L10 11L8.76 11L8.54 9.67L7.5 9.67L7.25 10.99L6 10.99L7.26 5ZM8.4 8.92L8.01 6.5L7.61 8.92L8.4 8.92Z" fill="#111111" fill-opacity="1.000000" fill-rule="nonzero"/><path id="Vector" d="M10.9 5.9L10 5.9L10 5L13 5L13 5.9L12.1 5.9L12.1 11L10.9 11L10.9 5.9Z" fill="#111111" fill-opacity="1.000000" fill-rule="nonzero"/></g></svg>
